PathFileType	4	(X/Y/Z)	 s06c0401.trc
DataRate	CameraRate	NumFrames	NumMarkers	Units	OrigDataRate	OrigDataStartFrame	OrigNumFrames
200	200	4	48	mm	200	1501	2000
Frame#	Time	racr			lacr			c7			jug			rlel			rdr			llel			ldr			s2			lic			ric			lasi			rasi			rpsi			lpsi			rgt			lgt			rth1			rth2			rth3			rth4			rlfc			rmfc			rsh1			rsh2			rsh3			rsh4			rlmal			rcal			rtoe			rmt5			lth1			lth2			lth4			lth3			llfc			lmfc			llmal			lcal			lmt5			lsh1			lsh2			lsh3			lsh4			ltoe			SBIKE			LBIKE			RBIKE			
		X1	Y1	Z1	X2	Y2	Z2	X3	Y3	Z3	X4	Y4	Z4	X5	Y5	Z5	X6	Y6	Z6	X7	Y7	Z7	X8	Y8	Z8	X9	Y9	Z9	X10	Y10	Z10	X11	Y11	Z11	X12	Y12	Z12	X13	Y13	Z13	X14	Y14	Z14	X15	Y15	Z15	X16	Y16	Z16	X17	Y17	Z17	X18	Y18	Z18	X19	Y19	Z19	X20	Y20	Z20	X21	Y21	Z21	X22	Y22	Z22	X23	Y23	Z23	X24	Y24	Z24	X25	Y25	Z25	X26	Y26	Z26	X27	Y27	Z27	X28	Y28	Z28	X29	Y29	Z29	X30	Y30	Z30	X31	Y31	Z31	X32	Y32	Z32	X33	Y33	Z33	X34	Y34	Z34	X35	Y35	Z35	X36	Y36	Z36	X37	Y37	Z37	X38	Y38	Z38	X39	Y39	Z39	X40	Y40	Z40	X41	Y41	Z41	X42	Y42	Z42	X43	Y43	Z43	X44	Y44	Z44	X45	Y45	Z45	X46	Y46	Z46	X47	Y47	Z47	X48	Y48	Z48	
1501	7.5050	524.372795	1301.227612	-43.371047	549.909443	1297.885632	-369.897713	523.240749	1400.541479	-203.162937	523.550361	1221.292186	-194.797612	504.688629	1054.524211	78.723705	656.341131	916.071467	-43.662721	491.168897	1056.911216	-490.282371	655.252889	924.735523	-399.273491	0.679384	1134.357926	-226.852831	186.416809	1100.580337	-390.698236	134.940533	1117.585823	-58.044939	197.714721	1037.649631	-359.454590	164.477275	1066.847873	-83.204775	34.966890	1178.580317	-199.436919	35.133399	1168.936259	-260.895821	119.594903	1069.191550	-21.694574	141.245171	1017.152076	-415.659260	226.892126	1019.862010	-16.202524	316.743029	1009.695836	-21.321419	384.942513	959.474058	-18.677418	326.545321	1039.854510	-42.920961	460.559484	883.340554	-42.742286	457.427149	857.287159	-158.229633	407.988723	769.581315	-22.428821	380.245029	689.334931	-45.069979	318.093318	628.152876	-47.158127	399.516097	682.953106	-79.920068	264.561319	564.692187	-52.794006	196.018725	555.899507	-102.169151	445.089657	437.291996	-101.656970	347.788159	455.498541	-32.387193	178.558620	897.201616	-429.768929	238.996920	834.453874	-425.498667	271.189713	852.259857	-418.408690	259.944027	748.161681	-416.438190	277.850079	637.279005	-391.885811	284.307165	619.858624	-277.304174	76.204086	330.661425	-376.974688	9.374503	349.004298	-327.960573	127.935170	193.574539	-405.577774	221.769697	545.780795	-412.752472	194.940925	464.925882	-393.516520	132.000297	404.368028	-395.616349	219.310373	454.174728	-364.294936	198.541411	141.180221	-348.839523	-203.857793	870.533081	-212.512448	-48.636221	83.863584	-418.967274	-50.290587	80.183518	-21.732456	
1502	7.5100	524.202064	1301.373413	-43.413513	549.231827	1298.348630	-370.196616	522.812895	1400.816402	-203.240594	523.220169	1221.532881	-194.811899	504.879292	1054.600141	78.520395	656.458001	915.807608	-43.710799	491.111263	1056.921036	-490.078187	655.383520	924.745809	-399.231730	0.555737	1134.066915	-226.713438	186.168572	1100.966173	-390.571967	135.202711	1116.975707	-58.170141	197.599952	1038.039868	-359.369562	164.757097	1066.347432	-83.531702	34.824068	1178.246376	-199.188386	34.914173	1168.744302	-260.621287	119.659146	1068.062614	-21.780885	141.324838	1017.666768	-415.771261	226.918938	1018.167428	-16.311069	316.769436	1007.639830	-21.431055	384.731863	957.124178	-19.090655	326.660786	1037.808438	-42.919887	460.155916	880.688609	-42.937477	456.865419	854.653735	-158.340854	408.091397	766.546813	-22.492810	380.531063	686.135300	-45.555152	319.491622	624.333576	-47.220341	399.641737	679.745412	-80.469255	266.676134	560.602708	-52.521826	198.277593	551.265707	-102.121942	448.264053	434.639757	-101.684953	350.860891	452.086750	-32.411494	179.451623	898.007469	-429.553774	240.398389	835.805180	-425.328201	272.442937	853.856812	-418.267019	262.040267	749.628928	-416.093168	280.210658	638.731409	-391.677684	286.778153	621.657637	-276.907255	75.421442	334.297272	-377.023164	8.801060	353.678186	-328.023933	124.955841	196.631023	-405.694544	223.405726	547.886491	-412.424173	195.748507	467.342122	-393.358839	132.163889	407.409618	-395.562191	219.913744	456.339819	-364.130451	194.887151	143.062748	-348.896359	-203.869676	870.513338	-212.496421	-48.632763	83.843968	-418.938628	-50.287678	80.165864	-21.737350	
1503	7.5150	524.036754	1301.595047	-43.480752	548.668175	1298.752606	-370.441915	522.410576	1401.079629	-203.304080	522.875686	1221.775462	-194.912605	505.085918	1054.658550	78.257966	656.574277	915.592583	-43.759005	491.082322	1056.918507	-489.899205	655.536707	924.746293	-399.192880	0.474171	1133.828533	-226.591900	185.930708	1101.311034	-390.441484	135.311176	1116.339311	-58.122519	197.491611	1038.501541	-359.231620	165.064919	1065.931689	-83.691965	34.705934	1177.863005	-198.924123	34.750709	1168.484708	-260.336914	119.738335	1066.975098	-21.861111	141.441794	1018.174078	-415.873421	226.850041	1016.205696	-17.087226	316.741979	1005.581275	-21.513549	385.017335	954.407133	-20.396044	326.773790	1035.804374	-42.842847	460.587080	876.712757	-44.686752	456.342550	852.003338	-158.401080	408.137370	763.544348	-22.563360	381.274743	682.893523	-45.594399	320.786034	620.537076	-47.286893	400.507616	676.680537	-80.437788	268.763582	556.445268	-52.485326	200.378591	546.635767	-102.080505	451.313712	432.039029	-101.735416	353.781507	448.592016	-32.385004	180.332652	898.955621	-429.247400	241.771634	837.224206	-425.104997	273.676458	855.568668	-418.013496	264.163529	751.206773	-415.687596	282.602310	640.337444	-391.500813	289.396068	623.292462	-276.581427	74.743188	337.913571	-377.136288	8.315543	358.303690	-328.043076	122.184053	199.512553	-405.642429	225.080141	550.045258	-412.279838	196.567676	469.721902	-393.142166	132.404892	410.469734	-395.551098	220.629626	458.560293	-363.963252	191.306455	144.939994	-348.857131	-203.874901	870.519687	-212.467628	-48.618239	83.826411	-418.937294	-50.298024	80.168308	-21.739843	
1504	7.5200	523.841391	1301.786596	-43.618584	548.110020	1299.090455	-370.696682	522.015818	1401.305671	-203.363941	522.423101	1222.034299	-195.135114	505.319366	1054.735549	77.989262	656.647100	915.320464	-43.834925	491.065547	1056.923842	-489.741019	655.657224	924.750158	-399.114271	0.394650	1133.564903	-226.402920	185.683245	1101.622326	-390.308352	135.574274	1115.819112	-58.070051	197.368129	1039.056287	-358.993513	165.584944	1065.627704	-83.766563	34.683718	1177.319856	-198.827526	34.622006	1168.283648	-260.138530	119.745137	1065.869640	-21.923962	141.608455	1018.623136	-416.002861	226.736837	1014.000556	-17.362464	316.693473	1003.547243	-21.490297	384.814723	951.612532	-21.154393	326.932877	1033.767201	-42.780942	460.156875	873.749080	-45.227819	455.675574	849.140929	-158.549032	407.984547	760.536882	-22.802694	382.553257	679.480875	-45.205138	322.000168	616.705027	-47.333460	402.417085	673.715719	-79.701823	270.747419	552.291836	-52.533407	202.384558	542.009408	-102.088784	454.259841	429.291111	-101.745175	356.493787	445.123290	-32.414737	181.149069	899.905377	-428.884984	243.152934	838.701348	-424.888791	274.882132	857.262231	-417.624352	266.313484	752.808380	-415.796816	285.045520	641.899870	-391.338857	291.983524	625.090311	-276.180600	74.117572	341.589023	-377.238137	7.949693	362.923110	-328.086652	119.498846	202.495275	-405.775098	226.797701	552.161339	-412.158770	197.445197	472.169656	-393.093021	132.661950	413.603961	-395.512613	221.304896	460.719951	-363.792549	187.794875	146.947206	-348.751112	-203.891182	870.487740	-212.403103	-48.606636	83.813200	-418.932066	-50.282805	80.169527	-21.748240	
